<svg xmlns="http://www.w3.org/2000/svg" width="264.858" height="270.153" viewBox="0 0 248.304 253.269" xmlns:v="https://vecta.io/nano"><path fill="none" d="M228.858 148.193c-3.181 16.366-28.493 34.278-57.562 37.749-15.159 1.809-30.084 3.471-45.999 2.741-26.028-1.192-46.565-6.213-46.565-6.213 0 2.534.156 4.946.469 7.202 3.384 25.686 25.47 27.225 46.391 27.942 21.116.722 39.919-5.206 39.919-5.206l.868 19.09s-14.77 7.931-41.081 9.39c-14.509.798-32.524-.365-53.506-5.919-45.507-12.045-53.334-60.554-54.531-109.774-.365-14.614-.14-28.394-.14-39.919 0-50.33 32.976-65.082 32.976-65.082 16.628-7.636 45.159-10.847 74.82-11.09h.729c29.661.242 58.211 3.454 74.837 11.09 0 0 32.975 14.752 32.975 65.082 0 0 .414 37.134-4.599 62.915" stroke="#000" stroke-width="17.717"/><path d="M194.56 89.182v60.941h-24.144v-59.15c0-12.469-5.246-18.797-15.74-18.797-11.602 0-17.417 7.508-17.417 22.353v32.376h-24.001V94.528c0-14.845-5.816-22.353-17.419-22.353-10.494 0-15.74 6.329-15.74 18.798v59.15H55.955V89.182c0-12.455 3.171-22.353 9.541-29.675 6.569-7.322 15.171-11.076 25.85-11.076 12.355 0 21.711 4.749 27.898 14.248l6.014 10.081 6.015-10.081c6.185-9.499 15.541-14.248 27.898-14.248 10.678 0 19.28 3.754 25.85 11.076 6.369 7.323 9.54 17.22 9.54 29.675"/></svg>